HIERARCHY
ROOT Hips
{
  OFFSET -3.70995 101.374 -116.051
  CHANNELS 6 Xposition Yposition Zposition Zrotation Xrotation Yrotation
  JOINT RightUpLeg
  {
    OFFSET -8.9458 -8.66707 0.101652
    CHANNELS 3 Zrotation Xrotation Yrotation
    JOINT RightLeg
    {
      OFFSET 0 -44.4227 1.3727
      CHANNELS 3 Zrotation Xrotation Yrotation
      JOINT RightFoot
      {
        OFFSET 0.253549 -42.0924 -1.46059
        CHANNELS 3 Zrotation Xrotation Yrotation
        JOINT RightToes
        {
          OFFSET 0.04 -4.41509 8.4991
          CHANNELS 3 Zrotation Xrotation Yrotation
          End Site
          {
            OFFSET -0.08 -0.137448 9.77979
          }
        }
      }
    }
  }
  JOINT Spine
  {
    OFFSET 0 11.8905 0
    CHANNELS 3 Zrotation Xrotation Yrotation
    JOINT Spine1
    {
      OFFSET 0 25.6574 0.127663
      CHANNELS 3 Zrotation Xrotation Yrotation
      JOINT HEad
      {
        OFFSET 0 8.73416 0.011341
        CHANNELS 3 Zrotation Xrotation Yrotation
        End Site
        {
          OFFSET -0.29 12.7742 2.51395
        }
      }
      JOINT LeftShoulder1
      {
        OFFSET 8.99 -0.362252 -0.22
        CHANNELS 3 Zrotation Xrotation Yrotation
        JOINT LeftArm
        {
          OFFSET 10.2827 -0.00338 0.322123
          CHANNELS 3 Zrotation Xrotation Yrotation
          JOINT LeftForeArm
          {
            OFFSET 32.7669 0.099144 -1.42434
            CHANNELS 3 Zrotation Xrotation Yrotation
            JOINT LeftHand
            {
              OFFSET 27.5643 0.085362 1.02216
              CHANNELS 3 Zrotation Xrotation Yrotation
              End Site
              {
                OFFSET 16.7443 -0.6 1.50291
              }
            }
          }
        }
      }
      JOINT RightShoulder
      {
        OFFSET -8.99 -0.362252 -0.22
        CHANNELS 3 Zrotation Xrotation Yrotation
        JOINT RightArm
        {
          OFFSET -10.2827 -0.00338 0.322123
          CHANNELS 3 Zrotation Xrotation Yrotation
          JOINT RightForeArm
          {
            OFFSET -32.8971 0.099144 -1.42434
            CHANNELS 3 Zrotation Xrotation Yrotation
            JOINT RightHand
            {
              OFFSET -27.4921 0.085362 1.02216
              CHANNELS 3 Zrotation Xrotation Yrotation
              End Site
              {
                OFFSET -16.6312 -0.6 1.50291
              }
            }
          }
        }
      }
    }
  }
  JOINT LeftUpLeg
  {
    OFFSET 8.9458 -8.66707 0.101652
    CHANNELS 3 Zrotation Xrotation Yrotation
    JOINT LeftLeg
    {
      OFFSET 0 -44.4227 1.3727
      CHANNELS 3 Zrotation Xrotation Yrotation
      JOINT LeftFoot
      {
        OFFSET -0.253549 -42.0924 -1.46059
        CHANNELS 3 Zrotation Xrotation Yrotation
        JOINT LeftToes
        {
          OFFSET -0.04 -4.41509 8.4991
          CHANNELS 3 Zrotation Xrotation Yrotation
          End Site
          {
            OFFSET 0.08 -0.047448 9.77979
          }
        }
      }
    }
  }
}
MOTION
Frames:	10
Frame Time:	0.0166667
-2.80785 101.51 -178.247 2.07837 0.037606 -0.046568 0.926138 5.57833 0.0667642 1.84972 27.5759 -13.2196 8.33974 -4.94177 0.00773938 0.0462048 0.000533964 0.662642 -0.513508 0.48112 -0.529133 -4.52508 8.54494 0.562642 0.0675253 0.949506 7.76754 8.68906e-016 -1.59028e-015 3.41661e-017 -85.2772 -61.9558 -0.795544 -8.0064 12.8298 -12.0973 0.368473 9.90896 -0.00117926 -4.6291 0.577509 9.59002 94.5595 -46.7342 4.92437 5.6427 12.68 13.1662 -0.369625 9.91382 0.00119886 -4.58267 -22.6145 0.511191 -3.85059 17.7319 22.408 -4.50294 3.52611 0.336886 8.6205e-012 -2.4856e-012 -7.3598e-012 
-2.63165 101.671 -176.728 2.2548 -0.324153 0.400072 0.33229 4.55395 -0.0619156 2.42685 31.2217 -14.0907 8.40848 -2.90259 -0.140195 -4.24291 3.84217 2.62616 -0.501833 0.347315 -0.585063 -4.94315 8.8816 0.634303 0.320805 1.16323 7.28478 4.96962e-017 -1.59028e-015 9.93923e-017 -86.141 -61.4843 -2.14747 -7.67722 12.7676 -11.9025 0.368473 9.90896 -0.00117926 -4.42755 0.585829 9.27799 94.1235 -46.8787 4.24631 5.78315 12.7 13.1044 -0.369625 9.91382 0.00119886 -4.74774 -21.5325 0.93679 -4.15274 18.434 21.7118 -4.72629 2.45029 0.298983 0.050241 -0.812296 -0.0371062 
-2.44925 101.811 -175.242 2.44743 -0.625684 0.750892 -0.301807 3.24932 -0.177033 3.07836 35.0795 -14.8253 8.36826 -0.719821 -0.290281 -8.36153 8.16468 4.35755 -0.569007 0.248702 -0.620732 -5.28776 9.16176 0.692139 0.540664 1.30834 6.90384 8.69683e-016 -3.18055e-015 -2.98177e-016 -86.9656 -61.055 -3.38898 -7.425 12.7204 -11.7776 0.368473 9.90896 -0.00117926 -4.32479 0.586389 9.03631 93.7611 -47.0138 3.62278 5.90236 12.7171 13.0732 -0.369625 9.91382 0.00119886 -4.91037 -20.5286 1.19784 -4.52566 19.1051 21.2393 -4.92099 1.38012 0.26117 0.0601073 -1.5753 0.0175262 
-2.23535 101.914 -173.826 2.6531 -0.769494 0.817734 -1.08385 1.18196 -0.220392 3.65682 39.6159 -15.0522 8.0168 2.12881 -0.46912 -11.893 14.1163 5.71641 -0.849315 0.251487 -0.594792 -5.37257 9.26445 0.703025 0.641181 1.29572 6.82301 -7.45443e-016 -1.59028e-015 -0 -87.7862 -60.8511 -4.37186 -7.38732 12.7147 -11.828 0.368473 9.90896 -0.00117926 -4.56502 0.558473 9.00354 93.5936 -47.1422 3.10242 5.97019 12.7273 13.1234 -0.369625 9.91382 0.00119886 -4.9852 -19.6803 1.04455 -5.16347 19.6154 21.3553 -5.02923 0.309659 0.222366 -0.0828233 -2.11761 0.436606 
-2.041 101.946 -172.5 2.91105 -0.807483 0.781525 -1.83526 -1.32155 -0.314905 4.01649 44.4471 -14.743 7.49277 4.65054 -0.610373 -14.1861 20.2345 6.23356 -1.25374 0.297806 -0.550238 -5.45752 9.32676 0.710104 0.723889 1.11577 6.85451 -1.06847e-015 0 -1.98785e-016 -88.5914 -60.5564 -5.31979 -7.46216 12.7331 -12.0164 0.368473 9.90896 -0.00117926 -4.81136 0.533215 9.04543 93.5758 -47.2397 2.77576 5.99176 12.7308 13.2256 -0.369625 9.91382 0.00119886 -5.09401 -19.0711 0.611947 -5.88638 20.2046 21.8829 -5.10419 -0.720588 0.185341 -0.179005 -2.75603 0.769726 
-1.93792 101.825 -171.325 3.33394 -0.742431 0.814228 -2.44342 -4.18928 -0.724528 3.74634 49.5521 -13.1972 6.7879 5.90382 -0.633767 -13.6754 26.0336 4.7934 -1.79885 0.36226 -0.521211 -5.86611 9.47735 0.763163 0.922548 0.662804 6.83666 1.98785e-015 1.59028e-015 -1.98785e-016 -89.2851 -59.7817 -6.38126 -7.57982 12.766 -12.3917 0.368473 9.90896 -0.00117926 -4.69494 0.545339 9.02737 93.72 -47.2789 2.8002 5.95034 12.7239 13.3669 -0.369625 9.91382 0.00119886 -5.4289 -18.9299 -0.23489 -6.63419 21.189 22.9849 -5.17519 -1.64322 0.155709 0.00340264 -3.90943 0.450998 
-1.83877 101.685 -170.208 3.70932 -0.624049 0.7547 -2.89768 -7.13891 -0.972584 2.89444 54.2493 -11.4317 6.07282 6.25802 -0.598134 -11.2121 29.8311 2.41219 -2.30238 0.413666 -0.492915 -6.22358 9.62044 0.809556 1.06087 0.136609 6.89057 -4.47266e-016 -1.59028e-015 -0 -89.9564 -58.9101 -7.46066 -7.77884 12.8147 -12.802 0.368473 9.90896 -0.00117926 -4.55611 0.563295 9.08897 93.9777 -47.2723 3.02648 5.88162 12.7136 13.5484 -0.369625 9.91382 0.00119886 -5.75913 -18.8925 -0.958905 -7.27713 22.181 24.0361 -5.25477 -2.54485 0.123855 0.18437 -5.1015 0.0966581 
-1.65701 101.647 -169.066 3.8382 -0.49236 0.432676 -3.02285 -9.86616 -0.525374 2.33509 57.8237 -11.1308 5.55339 5.56797 -0.529927 -7.99344 28.7126 0.159525 -2.56281 0.397459 -0.45777 -6.19335 9.6801 0.802979 0.959575 -0.27905 7.12991 7.45443e-017 0 9.93923e-017 -90.7474 -58.288 -8.56056 -8.11125 12.8823 -13.0607 0.368473 9.90896 -0.00117926 -4.67789 0.563065 9.39776 94.3031 -47.2353 3.35229 5.81169 12.7053 13.7891 -0.369625 9.91382 0.00119886 -5.89508 -18.6688 -0.895267 -7.50955 22.9431 24.248 -5.39918 -3.54747 0.0772541 0.152777 -5.87262 0.273597 
-1.46202 101.678 -167.929 3.79717 -0.379113 0.0475252 -2.8353 -12.3688 0.224659 1.95104 60.3632 -11.557 5.15775 4.43531 -0.450996 -4.6389 25.7759 -1.9453 -2.65409 0.358386 -0.428261 -5.98243 9.72551 0.773857 0.7706 -0.640631 7.413 1.2921e-015 1.59028e-015 9.93923e-017 -91.5759 -57.6364 -9.67994 -8.46907 12.9566 -13.3199 0.368473 9.90896 -0.00117926 -4.86337 0.556738 9.73531 94.6911 -47.1259 3.78741 5.75247 12.6996 14.0227 -0.369625 9.91382 0.00119886 -5.88368 -18.2893 -0.554772 -7.54483 23.4804 24.1578 -5.50957 -4.47756 0.0302048 0.0815278 -6.59164 0.573096 
-1.30068 101.81 -166.793 3.54939 -0.338169 -0.238585 -2.30853 -14.5142 1.0945 1.49176 61.6187 -12.3393 4.88908 3.50986 -0.397907 -1.57822 23.5544 -3.85628 -2.51572 0.324659 -0.422147 -5.67004 9.79359 0.736255 0.5652 -0.960254 7.62746 3.26131e-016 -3.18055e-015 -3.23025e-016 -92.2971 -56.7373 -10.6968 -8.80198 13.0393 -13.7832 0.368473 9.90896 -0.00117926 -5.01662 0.547168 9.93546 95.1474 -46.8889 4.33385 5.72125 12.6986 14.1757 -0.369625 9.91382 0.00119886 -5.64437 -17.6271 -0.182431 -7.52728 23.6063 24.0054 -5.44905 -5.15087 -0.00447651 0.0507971 -7.52404 0.787757 
